<?xml version="1.0" encoding="utf-8"?>
<!-- Generator: Adobe Illustrator 21.1.0, SVG Export Plug-In . SVG Version: 6.00 Build 0)  -->
<svg fill="#C6E2FB" version="1.1" id="Layer_1" xmlns="http://www.w3.org/2000/svg" xmlns:xlink="http://www.w3.org/1999/xlink" x="0px" y="0px"
	 viewBox="0 0 71 71" style="enable-background:new 0 0 71 71;" xml:space="preserve">
<path d="M59.8,18.7v11.2c0,0-7.4,0-7.5,0V18.7H41.1c0,0,0-7.4,0-7.5h11.2V0h7.5v11.2H71v7.5H59.8z M48.6,33.6V22.4H37.4V11.2H7.5
	c-4.1,0-7.5,3.4-7.5,7.5v44.8C0,67.6,3.4,71,7.5,71h44.8c4.1,0,7.5-3.4,7.5-7.5V33.6H48.6z M7.5,63.5l11.2-14.9l7.5,11.2l11.2-14.9
	l14.9,18.7H7.5z"/>
</svg>
