<svg width="60" height="20" viewBox="0 0 60 20" fill="none" xmlns="http://www.w3.org/2000/svg">
<g clip-path="url(#clip0_126_1390)">
<path d="M26.5258 9.99999C26.5258 9.02468 26.9159 8.14814 27.5498 7.50616C28.1837 6.86419 29.0492 6.46913 30.0122 6.46913C30.9753 6.46913 31.8408 6.86419 32.4746 7.50616C33.1085 8.14814 33.4986 9.02468 33.4986 9.99999C33.4986 10.9753 33.1085 11.8518 32.4746 12.4938C31.8408 13.1358 30.9753 13.5309 30.0122 13.5309C29.0492 13.5309 28.1837 13.1358 27.5498 12.4938C26.9159 11.8518 26.5258 10.9753 26.5258 9.99999ZM34.9005 7.62962C34.4616 6.69135 33.7546 5.88888 32.8891 5.34567C32.048 4.81481 31.0606 4.50616 30 4.50616C28.9395 4.50616 27.9399 4.81481 27.111 5.34567C26.2455 5.88888 25.5506 6.679 25.1118 7.61728C25.0264 7.81481 24.8314 7.95061 24.612 7.95061H8.8501V12.0617H24.5998C24.807 12.0617 25.0021 12.1728 25.0996 12.3704C25.5384 13.3086 26.2455 14.1111 27.111 14.6543C27.9521 15.1852 28.9395 15.4938 30 15.4938C31.0606 15.4938 32.0602 15.1852 32.8891 14.6543C33.7546 14.1111 34.4494 13.321 34.8883 12.3827C34.9736 12.1852 35.1687 12.0494 35.3881 12.0494H51.15V7.95061H35.4003C35.193 7.95061 34.998 7.82715 34.9005 7.62962Z" fill="black"/>
<path d="M32.3894 10C32.3894 9.33333 32.1212 8.72839 31.6946 8.29629C31.2679 7.86419 30.6706 7.59259 30.0123 7.59259C29.3541 7.59259 28.7567 7.86419 28.3301 8.29629C27.9034 8.72839 27.6353 9.33333 27.6353 10C27.6353 10.6667 27.9034 11.2716 28.3301 11.7037C28.7567 12.1358 29.3541 12.4074 30.0123 12.4074C30.6706 12.4074 31.2679 12.1358 31.6946 11.7037C32.1212 11.2716 32.3894 10.6667 32.3894 10Z" fill="black"/>
<path d="M7.75272 1.23457C7.72834 0.901235 7.59425 0.604938 7.37483 0.382716C7.14321 0.148148 6.81408 0 6.46056 0H4.4248V3.60494L7.75272 1.23457Z" fill="black"/>
<path d="M3.32792 3.61728V0H1.29216C0.938643 0 0.609508 0.148148 0.377895 0.382716C0.158472 0.604938 0.0243803 0.901235 0 1.23457L3.32792 3.61728Z" fill="black"/>
<path d="M3.32792 8.20989V4.96298L0 2.58026V5.82717L3.32792 8.20989Z" fill="black"/>
<path d="M4.4248 8.20989L7.75272 5.82717V2.58026L4.4248 4.96298V8.20989Z" fill="black"/>
<path d="M4.4248 12.8148L7.75272 10.4321V7.18518L4.4248 9.5679V12.8148Z" fill="black"/>
<path d="M3.32792 9.5679L0 7.18518V10.4321L3.32792 12.8148V9.5679Z" fill="black"/>
<path d="M3.32792 14.1605L0 11.7778V15.0247L3.32792 17.4074V14.1605Z" fill="black"/>
<path d="M7.75272 15.037V11.7778L4.4248 14.1605V17.4074L7.75272 15.037Z" fill="black"/>
<path d="M7.37483 19.6049C7.60644 19.3704 7.75272 19.037 7.75272 18.679V16.3827L4.4248 18.7654V20H6.46056C6.81408 20 7.14321 19.8519 7.37483 19.6049Z" fill="black"/>
<path d="M3.32792 18.7654L0 16.3827V18.679C0 19.037 0.146282 19.3704 0.377895 19.6049C0.609508 19.8395 0.938643 19.9877 1.29216 19.9877H3.32792V18.7654Z" fill="black"/>
<path d="M55.575 3.61728V0H53.5392C53.1857 0 52.8566 0.148148 52.625 0.382716C52.4055 0.604938 52.2715 0.901235 52.2471 1.23457L55.575 3.61728Z" fill="black"/>
<path d="M58.7076 0H56.6719V3.60494L59.9998 1.23457C59.9754 0.901235 59.8413 0.604938 59.6219 0.382716C59.3781 0.148148 59.0611 0 58.7076 0Z" fill="black"/>
<path d="M59.9998 5.82717V2.58026L56.6719 4.96298V8.20989L59.9998 5.82717Z" fill="black"/>
<path d="M55.575 4.96298L52.2471 2.58026V5.82717L55.575 8.20989V4.96298Z" fill="black"/>
<path d="M55.575 9.5679L52.2471 7.18518V10.4321L55.575 12.8148V9.5679Z" fill="black"/>
<path d="M55.575 14.1605L52.2471 11.7778V15.0247L55.575 17.4074V14.1605Z" fill="black"/>
<path d="M59.9998 10.4321V7.18518L56.6719 9.5679V12.8148L59.9998 10.4321Z" fill="black"/>
<path d="M59.9998 15.037V11.7778L56.6719 14.1605V17.4074L59.9998 15.037Z" fill="black"/>
<path d="M59.9998 18.6913V16.3951L56.6719 18.7654V20H58.7076C59.0611 20 59.3903 19.8518 59.6219 19.6173C59.8535 19.3704 59.9998 19.0494 59.9998 18.6913Z" fill="black"/>
<path d="M55.575 18.7654L52.2471 16.3827V18.679C52.2471 19.037 52.3934 19.3704 52.625 19.6049C52.8566 19.8395 53.1857 19.9877 53.5392 19.9877H55.575V18.7654Z" fill="black"/>
</g>
<defs>
<clipPath id="clip0_126_1390">
<rect width="60" height="20" fill="white"/>
</clipPath>
</defs>
</svg>
