<?xml version="1.0" encoding="utf-8"?>
<!-- Generator: Adobe Illustrator 21.1.0, SVG Export Plug-In . SVG Version: 6.00 Build 0)  -->
<svg version="1.1" id="Layer_1" xmlns="http://www.w3.org/2000/svg" xmlns:xlink="http://www.w3.org/1999/xlink" x="0px" y="0px"
	 viewBox="0 0 25 30" style="enable-background:new 0 0 25 30;" xml:space="preserve">
<path d="M0,22.1c0,1.4,0.6,2.6,1.6,3.5v2.8c0,0.9,0.7,1.6,1.6,1.6h1.6c0.9,0,1.6-0.7,1.6-1.6v-1.6h12.5v1.6c0,0.9,0.7,1.6,1.6,1.6
	h1.6c0.9,0,1.6-0.7,1.6-1.6v-2.8c1-0.9,1.6-2.1,1.6-3.5V6.3C25,0.8,19.4,0,12.5,0S0,0.8,0,6.3V22.1z M5.5,23.7
	c-1.3,0-2.3-1.1-2.3-2.4c0-1.3,1-2.4,2.3-2.4s2.3,1.1,2.3,2.4C7.8,22.6,6.8,23.7,5.5,23.7z M19.5,23.7c-1.3,0-2.3-1.1-2.3-2.4
	c0-1.3,1-2.4,2.3-2.4s2.3,1.1,2.3,2.4C21.9,22.6,20.8,23.7,19.5,23.7z M21.9,14.2H3.1V6.3h18.8V14.2z"/>
</svg>
