<?xml version="1.0" encoding="utf-8"?>
<!-- Generator: Adobe Illustrator 21.1.0, SVG Export Plug-In . SVG Version: 6.00 Build 0)  -->
<svg version="1.1" id="Layer_1" xmlns="http://www.w3.org/2000/svg" xmlns:xlink="http://www.w3.org/1999/xlink" x="0px" y="0px"
	 viewBox="0 0 40 28" style="enable-background:new 0 0 40 28;" xml:space="preserve">
<g>
	<path d="M33.4,21.8c-1.7,0-3,1.4-3,3.1l0,0l0,0c0,1.7,1.4,3.1,3,3.1c1.7,0,3-1.4,3-3.1C36.4,23.2,35.1,21.8,33.4,21.8z"/>
	<path d="M23.5,0H0.8C0.4,0,0,0.4,0,0.9v22.2c0,0.6,0.5,1.1,1.1,1.1h2.6c0.3-2.1,2.1-3.8,4.2-3.8s3.9,1.7,4.2,3.8h12
		c0-0.9,0,5.4,0-23.4C24.3,0.4,23.9,0,23.5,0z"/>
	<path d="M11,24.9c0-1.7-1.4-3.1-3-3.1c-1.7,0-3,1.4-3,3.1c0,1.7,1.4,3.1,3,3.1C9.7,28,11,26.6,11,24.9C11.1,24.9,11,24.9,11,24.9
		L11,24.9z"/>
	<path d="M39.4,12.1c-1.7-1.8-4.5-4.7-6.4-6.6c-0.4-0.4-0.9-0.6-1.4-0.6h-4.8c-0.6,0-1,0.5-1.1,1v18.4h3.5c0.3-2.1,2.1-3.8,4.2-3.8
		c2.2,0,3.9,1.7,4.2,3.8h1.9c0.2,0,0.4-0.2,0.4-0.4V13.5C39.9,13,39.7,12.5,39.4,12.1z M30.8,17.6h-1.9c-0.4,0-0.6-0.3-0.6-0.7
		c0-0.4,0.3-0.7,0.6-0.7h1.9c0.4,0,0.6,0.3,0.6,0.7C31.4,17.3,31.2,17.6,30.8,17.6z M37,13.6h-8.5V7.2c0.1,0,3-0.1,2.8-0.1
		c0.2,0,0.4,0.1,0.5,0.2c0.9,0.9,4.1,4.3,5,5.2c0.1,0.1,0.2,0.3,0.2,0.5L37,13.6z"/>
</g>
</svg>
