<svg width="34" height="18" viewBox="0 0 34 18" fill="none" xmlns="http://www.w3.org/2000/svg">
<path opacity="0.6" fill-rule="evenodd" clip-rule="evenodd" d="M12.5817 8.57687L14.2904 0.241791L18.5878 2.50522C18.7949 3.1903 18.8553 3.85522 18.7863 4.5L20.3741 4.78881C20.6848 4.84254 20.8832 5.09776 20.8142 5.3597C20.7969 5.43358 20.7538 5.50746 20.6934 5.56791L18.1909 11.6261H22.169V12.3045H1.95888L2.32995 11.6261H3.29645L3.21878 8.93955L0.785279 6.09179C0.716244 6.01119 0.690355 5.91716 0.690355 5.82985L0.759391 3.40522C0.77665 3.15672 1.03553 2.96194 1.34619 2.96194L2.6665 3.07612C2.85634 2.37761 3.21878 1.68582 3.73655 0.987313L13.1944 0L11.434 8.5903L2.75279 5.68209C2.56294 5.11119 2.48528 4.5403 2.5198 3.97612L1.88985 3.92239L1.83807 5.70224L4.25431 8.53657C4.32335 8.61045 4.35787 8.69776 4.35787 8.78508L4.44416 11.6261H16.9914L19.4594 5.61493L18.5706 5.45373C18.3721 6.07836 18.0442 6.68955 17.5868 7.29403L12.5817 8.57687ZM26.6218 3.72761V8.87239H31.601V5.21866C31.601 4.53358 31.0315 3.72761 30.0563 3.72761H26.6218ZM7.86142 16.3679C7.84416 15.4813 6.92944 14.7761 5.79035 14.7761H5.70406C4.63401 14.8231 3.71929 15.4746 3.71929 16.3881C3.71929 17.2813 4.64264 18 5.79035 18C6.96396 18 7.86142 17.2746 7.86142 16.3679ZM12.6594 14.7761C13.7985 14.7761 14.7132 15.4813 14.7305 16.3679C14.7305 17.2746 13.833 18 12.6594 18C11.5203 18 10.5883 17.2813 10.5883 16.3881C10.5883 15.5015 11.5203 14.7761 12.6594 14.7761ZM22.169 13.1978H1.47563L0 15.891H2.64061C2.93401 14.756 4.22843 13.9097 5.71269 13.8896C7.25736 13.8694 8.62944 14.709 8.94873 15.891H9.51827C9.82893 14.6754 11.1406 13.9231 12.6249 13.8896C14.1695 13.8896 15.4985 14.709 15.8178 15.891H22.169V13.1978ZM34 15.891H30.6C30.2893 14.6888 28.8396 13.809 27.2518 13.8963C25.8193 13.9567 24.5939 14.7963 24.3091 15.891H23.3081V3.72761H25.4741V9.31567C25.4741 9.55746 25.733 9.75896 26.0437 9.75896H31.601V10.35C31.601 10.5918 31.8599 10.7933 32.1792 10.7933L32.2541 10.7928C32.4297 10.7916 32.8221 10.7888 32.8437 10.8C33.4822 10.8 34 11.203 34 11.7V15.891ZM29.5299 16.3679C29.5127 15.4478 28.4944 14.7022 27.3035 14.7828C26.2508 14.7828 25.3964 15.5955 25.3964 16.3881C25.3964 17.2813 26.3198 18 27.4675 18C28.6239 18 29.5299 17.2679 29.5299 16.3679Z" fill="black"/>
</svg>
