<svg width="47" height="18" viewBox="0 0 47 18" fill="none" xmlns="http://www.w3.org/2000/svg">
<g clip-path="url(#clip0_168_2254)">
<path d="M37.6587 2.92334H44.3781L46.5 7.56388V13.063H37.6587V2.92334ZM45.5603 10.9779C45.5704 11.0187 45.5906 11.0596 45.6007 11.1107L46.3585 11.724V10.7939H45.5401C45.5502 10.8552 45.5502 10.9165 45.5603 10.9779ZM39.6695 6.40886L41.0538 7.56388H44.8833V7.0017L43.5495 4.09881C43.4687 4.07837 43.3778 4.06814 43.2666 4.06814H39.8008C39.7301 4.06814 39.6594 4.12947 39.6594 4.1908L39.6695 6.40886Z" fill="black" fill-opacity="0.6"/>
<path d="M35.6884 0H0.0100632V13.0733H35.6884V0Z" fill="black" fill-opacity="0.6"/>
<path d="M6.44656 16.3237C6.44656 15.3935 7.19428 14.6474 8.11377 14.6474C9.02316 14.6474 9.77087 15.3935 9.77087 16.3237C9.77087 17.2436 9.02316 18 8.11377 18C7.19428 18 6.44656 17.2436 6.44656 16.3237Z" fill="black" fill-opacity="0.6"/>
<path d="M11.2664 16.3237C11.2664 15.3935 12.0141 14.6474 12.9235 14.6474C13.843 14.6474 14.5806 15.3935 14.5806 16.3237C14.5806 17.2436 13.843 18 12.9235 18C12.0141 18 11.2664 17.2436 11.2664 16.3237Z" fill="black" fill-opacity="0.6"/>
<path d="M30.414 16.3237C30.414 15.3935 31.1617 14.6474 32.0812 14.6474C32.9906 14.6474 33.7383 15.3935 33.7383 16.3237C33.7383 17.2436 32.9906 18 32.0812 18C31.1516 18 30.414 17.2436 30.414 16.3237Z" fill="black" fill-opacity="0.6"/>
<path d="M41.9227 14.6576C42.8321 14.6576 43.5798 15.4038 43.5798 16.3339C43.5798 17.2538 42.8321 18.0102 41.9227 18.0102C41.0032 18.0102 40.2656 17.2538 40.2656 16.3339C40.2757 15.3935 41.0133 14.6576 41.9227 14.6576Z" fill="black" fill-opacity="0.6"/>
<path d="M45.0046 16.0477H44.0851C43.9537 14.954 43.0342 14.1056 41.9329 14.1056C40.8113 14.1056 39.9019 14.954 39.7705 16.0477H34.2435C34.1121 14.954 33.1926 14.1056 32.0913 14.1056C30.9697 14.1056 30.0502 14.954 29.9289 16.0477H15.1059C14.9645 14.954 14.0551 14.1056 12.9436 14.1056C11.8321 14.1056 10.9126 14.954 10.7813 16.0477H10.3064C10.175 14.954 9.25554 14.1056 8.15417 14.1056C7.0326 14.1056 6.11311 14.954 5.99185 16.0477H3.91037C3.78912 15.3731 3.26369 14.8313 2.59681 14.7189V13.615H46.5V14.5349C46.5 15.3731 45.8331 16.0477 45.0046 16.0477Z" fill="black" fill-opacity="0.6"/>
</g>
<defs>
<clipPath id="clip0_168_2254">
<rect width="46.5" height="18" fill="white" transform="matrix(-1 0 0 1 46.5 0)"/>
</clipPath>
</defs>
</svg>
