<svg width="54" height="18" viewBox="0 0 54 18" fill="none" xmlns="http://www.w3.org/2000/svg">
<g clip-path="url(#clip0_168_2236)">
<path d="M42.3945 0H50.5098L53.0725 5.55254V12.118H42.3945V0ZM51.9376 9.61627C51.9498 9.66509 51.9742 9.7139 51.9864 9.77492L52.9017 10.5071V9.39661H51.9132C51.9254 9.48203 51.9254 9.54305 51.9376 9.61627ZM44.8108 4.17356L46.4949 5.55254H51.12V4.88136L49.5091 1.41559C49.4115 1.39119 49.3017 1.37898 49.1674 1.37898H44.9817C44.8962 1.37898 44.8108 1.4522 44.8108 1.52542V4.17356Z" fill="black" fill-opacity="0.6"/>
<path d="M6.71178 14.0095C7.81008 14.0095 8.71313 14.9003 8.71313 16.0108C8.71313 17.1092 7.81008 18.0122 6.71178 18.0122C5.60127 18.0122 4.69822 17.1092 4.69822 16.0108C4.69822 14.9003 5.60127 14.0095 6.71178 14.0095Z" fill="black" fill-opacity="0.6"/>
<path d="M12.5084 14.0095C13.6189 14.0095 14.5098 14.9003 14.5098 16.0108C14.5098 17.1092 13.6189 18.0122 12.5084 18.0122C11.4101 18.0122 10.5071 17.1092 10.5071 16.0108C10.5193 14.9003 11.4223 14.0095 12.5084 14.0095Z" fill="black" fill-opacity="0.6"/>
<path d="M35.6461 14.0095C36.7444 14.0095 37.6475 14.9003 37.6475 16.0108C37.6475 17.1092 36.7444 18.0122 35.6461 18.0122C34.5356 18.0122 33.6325 17.1092 33.6325 16.0108C33.6447 14.9003 34.5478 14.0095 35.6461 14.0095Z" fill="black" fill-opacity="0.6"/>
<path d="M47.5444 14.0095C48.6427 14.0095 49.5458 14.9003 49.5458 16.0108C49.5458 17.1092 48.6427 18.0122 47.5444 18.0122C46.4339 18.0122 45.5431 17.1092 45.5431 16.0108C45.5553 14.9003 46.4461 14.0095 47.5444 14.0095Z" fill="black" fill-opacity="0.6"/>
<path d="M53.0725 13.863C53.0725 14.8759 52.2671 15.6814 51.2664 15.6814H50.1559C49.9973 14.3756 48.8867 13.3627 47.5566 13.3627C46.202 13.3627 45.1037 14.3756 44.9451 15.6814H38.2698C38.1112 14.3756 37.0006 13.3627 35.6705 13.3627C34.3159 13.3627 33.2054 14.3756 33.059 15.6814H15.1566C14.9857 14.3756 13.8874 13.3627 12.5451 13.3627C11.2027 13.3627 10.0922 14.3756 9.93353 15.6814H9.35997C9.20132 14.3756 8.09082 13.3627 6.76065 13.3627C5.40607 13.3627 4.29556 14.3756 4.14912 15.6814H1.63522C1.48878 14.8759 0.854206 14.2292 0.0487823 14.0949V12.7769H53.0725V13.863Z" fill="black" fill-opacity="0.6"/>
</g>
<defs>
<clipPath id="clip0_168_2236">
<rect width="53.0725" height="18" fill="white" transform="matrix(-1 0 0 1 53.0725 0)"/>
</clipPath>
</defs>
</svg>
