<svg width="34" height="18" viewBox="0 0 34 18" fill="none" xmlns="http://www.w3.org/2000/svg">
<path opacity="0.6" fill-rule="evenodd" clip-rule="evenodd" d="M16.7241 0C16.5639 0.017487 16.3563 0.483808 16.3563 0.874352C16.3563 0.876117 16.3558 0.877882 16.3552 0.879809C16.3538 0.884246 16.3522 0.88954 16.3563 0.897668H17.8573V0.874352C17.8573 0.483808 17.6852 0 17.4894 0H16.7241ZM15.2944 2.05764H11.1593V10.842H23.339V3.65479C23.339 2.77461 22.811 2.05764 22.1584 2.05764H18.9073C18.7828 1.59715 18.3556 1.25324 17.8454 1.25324H16.3563C15.8461 1.25324 15.4189 1.59132 15.2944 2.05764ZM10.2694 12.4275C9.68208 12.4275 9.92532 11.9203 9.92532 11.9203H24.1696V3.06606L23.8611 3.03109L24.0332 1.62047L24.2705 1.65544C24.2705 1.65544 25.5044 1.8886 25.5044 3.06606V5.35104C26.0562 4.66321 27.041 4.69236 27.041 4.69236C27.041 4.69236 27.5631 4.70402 28.3343 4.71567V4.68653C28.3343 4.55246 28.4648 4.44754 28.6369 4.41256C28.625 4.3601 28.6191 4.29016 28.625 4.21438H29.8353C29.8412 4.29598 29.8353 4.3601 29.8234 4.41256C30.0014 4.44754 30.1378 4.55246 30.1378 4.69236V4.75648C30.3455 4.76231 30.5591 4.76814 30.7667 4.76814C33.2406 4.81477 33.2762 7.63601 33.2762 7.63601C33.2762 7.63601 33.5966 9.65285 33.9407 12.7073C33.9822 13.092 33.9941 13.4534 33.9585 13.7681H34C34 13.7681 33.6262 15.785 33.1932 16.2804C33.1932 16.2804 33.0923 16.4786 32.7897 16.4786H31.4668C31.5261 16.2396 31.5557 15.989 31.5557 15.7325C31.5557 13.9139 30.0489 12.3983 28.1919 12.4275C25.9435 12.4624 24.8281 14.0946 24.8281 15.7325C24.8281 15.7791 24.8281 15.8258 24.8341 15.8724H20.5744C20.5744 15.8491 20.5759 15.8258 20.5774 15.8025C20.5789 15.7791 20.5804 15.7558 20.5804 15.7325C20.5804 13.9139 19.0735 12.4275 17.2165 12.4275C15.3656 12.4275 13.8527 13.908 13.8527 15.7325C13.8527 15.7791 13.8527 15.8258 13.8587 15.8724H13.6273C13.6273 15.8491 13.6288 15.8258 13.6303 15.8025C13.6317 15.7791 13.6332 15.7558 13.6332 15.7325C13.6332 13.908 12.1204 12.4275 10.2694 12.4275ZM32.1371 8.8193L31.7693 6.43523C31.7693 6.12047 31.2057 5.73575 30.8794 5.73575H30.8379V9.39054H31.5498C31.8761 9.39054 32.1371 9.13407 32.1371 8.8193ZM26.4893 8.8193C26.4893 9.13407 26.7503 9.39054 27.0707 9.39054H29.6573C30.1141 9.39054 30.215 9.04663 30.2328 8.83096V8.66192V8.65609V6.48769V6.48186V6.31282C30.215 6.09715 30.1141 5.75324 29.6573 5.75324L29.681 5.74158H27.0707C26.7503 5.74158 26.4893 5.99806 26.4893 6.31282V8.8193ZM28.9217 3.26425C28.7971 3.27591 28.631 3.64896 28.631 3.96373V3.98122H29.8293V3.96373C29.8293 3.64896 29.6929 3.26425 29.5327 3.26425H28.9217ZM10.2694 13.4534C11.5449 13.4534 12.5831 14.4734 12.5831 15.7267C12.5831 16.9799 11.5449 18 10.2694 18C8.99389 18 7.95567 16.9799 7.95567 15.7267C7.95567 14.4734 8.99389 13.4534 10.2694 13.4534ZM19.5303 15.7267C19.5303 14.4734 18.4921 13.4534 17.2165 13.4534C15.947 13.4534 14.9087 14.4734 14.9028 15.7267C14.9028 16.9799 15.941 18 17.2165 18C18.4921 18 19.5303 16.9799 19.5303 15.7267ZM30.5116 15.7267C30.5116 14.4734 29.4734 13.4534 28.1979 13.4534C26.9224 13.4534 25.8841 14.4734 25.8841 15.7267C25.8841 16.9799 26.9224 18 28.1979 18C29.4734 18 30.5116 16.9799 30.5116 15.7267ZM1.09161 12.4216L2.11795 12.0835L2.53324 11.4016C2.48578 11.2791 2.46205 11.1451 2.46205 11.0052V4.61658C2.46205 3.98705 2.98412 3.47409 3.62485 3.47409H6.56151C6.68016 2.68135 7.53446 2.05764 8.13959 2.05764H10.5364V10.842H8.25231L6.09283 14.3102H0L1.09161 12.4216Z" fill="black"/>
</svg>
