<svg width="40" height="18" viewBox="0 0 40 18" fill="none" xmlns="http://www.w3.org/2000/svg">
<g opacity="0.6">
<path d="M27.4475 0V11.4H0V0H27.4475ZM31.1692 1.2C32.0996 1.2 35.3478 3.6 36.2616 9C37.6572 9 38.7787 9.65357 39.2605 11.4429H28.3779V1.2H31.1692ZM33.03 4.8H32.0996V8.4H34.6583C34.6583 6.6 33.2626 4.8 33.03 4.8ZM39.4682 12.6321C39.5015 12.975 39.5181 13.35 39.5098 13.7571C39.5347 14.9893 40.0082 15 39.9999 15.5893H38.0809C37.6904 14.0464 36.9677 13.2643 35.813 13.1893C34.6998 13.1893 33.7528 14.2286 33.5285 15.5893H26.9158C26.7081 14.3464 25.9771 13.1893 24.6479 13.1893C23.5347 13.1893 22.5877 14.2286 22.3634 15.5893H21.7985C21.5327 14.4214 20.7268 13.2107 19.5306 13.1893C18.4174 13.1893 17.4704 14.2286 17.2461 15.5893H11.0986C10.866 14.3571 9.99374 13.1679 8.83071 13.1893C7.71753 13.1893 6.77049 14.2286 6.54619 15.5893H5.98129C5.74869 14.3786 4.89303 13.2214 3.71339 13.1893C2.6002 13.1893 1.65316 14.2286 1.42886 15.5893H0.0166147C0.0166147 15.5893 0 13.7893 0 12.5893C13.1838 12.5571 26.3177 12.6321 39.4682 12.6321ZM35.8213 14.4C36.5939 14.4 37.2169 15.2036 37.2169 16.2C37.2169 17.1964 36.5939 18 35.8213 18C35.0487 18 34.4257 17.1964 34.4257 16.2C34.4257 15.2036 35.0487 14.4 35.8213 14.4ZM24.6562 14.4C25.4288 14.4 26.0519 15.2036 26.0519 16.2C26.0519 17.1964 25.4288 18 24.6562 18C23.8836 18 23.2606 17.1964 23.2606 16.2C23.2606 15.2036 23.8836 14.4 24.6562 14.4ZM19.5389 14.4C20.3115 14.4 20.9345 15.2036 20.9345 16.2C20.9345 17.1964 20.3115 18 19.5389 18C18.7663 18 18.1433 17.1964 18.1433 16.2C18.1433 15.2036 18.7663 14.4 19.5389 14.4ZM8.83902 14.4C9.6116 14.4 10.2347 15.2036 10.2347 16.2C10.2347 17.1964 9.6116 18 8.83902 18C8.06644 18 7.44339 17.1964 7.44339 16.2C7.44339 15.2036 8.06644 14.4 8.83902 14.4ZM3.72169 14.4C4.49428 14.4 5.11733 15.2036 5.11733 16.2C5.11733 17.1964 4.49428 18 3.72169 18C2.94911 18 2.32606 17.1964 2.32606 16.2C2.32606 15.2036 2.94911 14.4 3.72169 14.4Z" fill="black"/>
</g>
</svg>
