<svg width="40" height="18" viewBox="0 0 40 18" fill="none" xmlns="http://www.w3.org/2000/svg">
<g opacity="0.6">
<path d="M24.9286 13.6342V15.8151C24.9286 15.9585 24.8703 16.0955 24.7602 16.2015C24.6502 16.3074 24.5077 16.3635 24.3588 16.3635H10.1268C9.92611 15.6282 9.34984 15.0487 8.59874 14.8243C7.84765 14.6 7.0318 14.7683 6.43611 15.273C6.36488 15.3353 6.29366 15.3976 6.23538 15.4662C6.17063 15.3976 6.10588 15.3291 6.03466 15.273C5.44544 14.7745 4.62312 14.6062 3.87202 14.8243C3.12093 15.0424 2.54466 15.6282 2.34393 16.3635H0.569796C0.258998 16.3635 0 16.1205 0 15.8151V13.6342C0 13.3351 0.252523 13.0858 0.569796 13.0858H24.3653C24.5142 13.0858 24.6566 13.1419 24.7667 13.2478C24.8703 13.3475 24.9286 13.4846 24.9286 13.6342ZM5.38716 16.1952C5.17349 15.9584 4.86269 15.8276 4.53894 15.8276C4.2152 15.8276 3.9044 15.9647 3.69073 16.1952C3.50943 16.3884 3.40583 16.6439 3.39935 16.9056C3.39935 17.2982 3.61303 17.6534 3.96915 17.8528C4.32527 18.0522 4.75262 18.0459 5.10227 17.8528C5.45191 17.6596 5.67206 17.2982 5.67206 16.9056C5.67206 16.6501 5.58141 16.4071 5.41306 16.2139L5.38716 16.1952ZM8.78652 16.1952C8.57284 15.9584 8.26205 15.8276 7.9383 15.8276C7.61455 15.8276 7.30375 15.9647 7.09008 16.1952C6.90878 16.3884 6.80518 16.6439 6.7987 16.9056C6.7987 17.2982 7.01238 17.6534 7.3685 17.8528C7.72462 18.0522 8.15197 18.0459 8.50162 17.8528C8.85127 17.6596 9.07142 17.2982 9.07142 16.9056C9.07142 16.6501 8.98077 16.4071 8.81242 16.2139L8.78652 16.1952ZM29.1826 16.1952C28.969 15.9584 28.6582 15.8276 28.3344 15.8276C28.0107 15.8276 27.6999 15.9647 27.4862 16.1952C27.3049 16.3884 27.2013 16.6439 27.1948 16.9056C27.1948 17.2982 27.4085 17.6534 27.7646 17.8528C28.1207 18.0522 28.5481 18.0459 28.8977 17.8528C29.2474 17.6596 29.4675 17.2982 29.4675 16.9056C29.4675 16.6501 29.3769 16.4071 29.2085 16.2139L29.1826 16.1952ZM33.8316 9.97014L31.7273 7.95741V6.98533C31.7273 6.1441 31.3776 5.34025 30.7625 4.74828C30.1474 4.1563 29.3121 3.81981 28.438 3.81981H26.6315V0.548358C26.6315 0.405037 26.5732 0.267947 26.4631 0.162015C26.3531 0.056082 26.2106 0 26.0617 0H22.6623C22.3516 0 22.0926 0.243022 22.0926 0.548358C22.0926 0.853693 22.3451 1.09672 22.6623 1.09672H25.4984V15.8214C25.4984 15.9647 25.5567 16.1018 25.6667 16.2077C25.7768 16.3136 25.9193 16.3697 26.0682 16.3697H26.1394C26.3077 15.7404 26.761 15.2232 27.3696 14.949C27.9783 14.6748 28.6841 14.6748 29.2927 14.949C29.9014 15.2232 30.3546 15.7466 30.5229 16.3697H33.4302C33.5791 16.3697 33.7216 16.3136 33.8316 16.2077C33.9417 16.1018 34 15.9647 34 15.8214V10.3689C33.9935 10.2132 33.9352 10.0761 33.8316 9.97014ZM24.9286 3.48332C24.8315 2.95365 24.5336 2.47384 24.0998 2.13735C23.666 1.80086 23.1156 1.62015 22.5587 1.63884H19.781C19.4961 1.63884 19.2565 1.86317 19.2565 2.14358V12.0452C19.2565 12.3194 19.4896 12.5499 19.781 12.5499H22.5587C23.1156 12.5686 23.666 12.3879 24.0998 12.0514C24.5336 11.7149 24.825 11.2351 24.9286 10.7054C25.0387 9.96391 24.7408 9.22238 24.1451 8.73633C24.6307 8.32506 24.9092 7.72686 24.9092 7.09749C24.9092 6.46813 24.6307 5.87615 24.1451 5.45865C24.7408 4.96637 25.0387 4.22485 24.9286 3.48332ZM7.32318 12.5437H17.6119C17.8968 12.5437 18.1364 12.3193 18.1364 12.0389V2.13735C18.1364 2.00649 18.0846 1.87563 17.981 1.78216C17.8838 1.68869 17.7479 1.63261 17.6119 1.63261H7.32318C7.03828 1.63261 6.7987 1.85694 6.7987 2.13735V12.0389C6.7987 12.1698 6.8505 12.3007 6.9541 12.3941C7.05123 12.4876 7.18073 12.5437 7.32318 12.5437ZM0.78347 8.72387C0.200724 9.21615 -0.0841744 9.95767 0.0323748 10.693C0.129499 11.2164 0.420872 11.6962 0.848219 12.0327C1.27557 12.3692 1.81946 12.5499 2.36983 12.5437H5.14759C5.43249 12.5437 5.67206 12.3193 5.67206 12.0389V2.13735C5.67206 2.00649 5.62026 1.87563 5.51666 1.78216C5.41954 1.68869 5.28357 1.63261 5.14759 1.63261H2.36983C1.81299 1.62638 1.27557 1.80709 0.841744 2.14358C0.414397 2.4863 0.129499 2.95988 0.0258998 3.48332C-0.0906494 4.21861 0.194249 4.96014 0.776995 5.45242C0.291373 5.86369 0.0129499 6.46189 0.0129499 7.09126C0.0129499 7.72062 0.291373 8.3126 0.78347 8.72387Z" fill="black"/>
</g>
</svg>
