<svg width="36" height="18" viewBox="0 0 36 18" fill="none" xmlns="http://www.w3.org/2000/svg">
<path opacity="0.6" fill-rule="evenodd" clip-rule="evenodd" d="M24.9907 0H0.307205V11.7415H24.9907V0ZM29.1991 13.1331C30.5849 13.1331 31.7134 14.22 31.7134 15.57C31.7134 16.92 30.5849 18 29.1991 18C27.8134 18 26.6849 16.9131 26.6849 15.57C26.6849 14.22 27.8134 13.1331 29.1991 13.1331ZM29.1991 16.6223C29.7991 16.6223 30.292 16.1515 30.292 15.5631C30.292 14.9815 29.7991 14.5038 29.1991 14.5038C28.5991 14.5038 28.1063 14.9746 28.1063 15.5631C28.1063 16.1515 28.5991 16.6223 29.1991 16.6223ZM30.4989 3.51692H26.0123L26.0052 12.6831H14.7887C15.5602 13.0223 16.1675 13.6523 16.4747 14.4208H20.3969L22.0258 15.8538H25.9266C25.9194 15.7569 25.9123 15.66 25.9123 15.5631C25.9123 13.8046 27.384 12.3854 29.1915 12.3854C31.0062 12.3854 32.4707 13.8115 32.4707 15.5631C32.4707 15.66 32.4636 15.7569 32.4564 15.8538H36V13.2577H35.2141V9.24231C35.2141 9.24231 34.0139 6.05077 33.4924 4.81846C32.9708 3.58615 31.842 3.51692 30.4989 3.51692ZM29.5559 8.91L27.6198 7.17923L27.6126 4.74231H30.1846C31.2348 4.74231 32.1207 4.79769 32.5279 5.76692C32.8494 6.52154 33.4924 8.20385 33.7567 8.91H29.5559ZM9.02322 14.4208H10.3735C10.6807 13.6523 11.2951 13.0292 12.0667 12.6831H7.33717C8.10875 13.0223 8.71602 13.6523 9.02322 14.4208ZM2.92201 14.4208C3.22922 13.6523 3.83648 13.0292 4.60806 12.6831H3.8147e-06V14.4208H2.92201ZM13.4246 13.1331C14.8103 13.1331 15.9389 14.22 15.9389 15.57C15.9389 16.92 14.8174 18 13.4246 18C12.0389 18 10.9103 16.9131 10.9103 15.57C10.9174 14.22 12.0389 13.1331 13.4246 13.1331ZM13.4246 16.6223C14.0246 16.6223 14.5174 16.1515 14.5174 15.5631C14.5174 14.9815 14.0246 14.5038 13.4246 14.5038C12.8246 14.5038 12.3317 14.9746 12.3317 15.5631C12.3389 16.1515 12.8246 16.6223 13.4246 16.6223ZM8.4874 15.57C8.4874 14.22 7.35883 13.1331 5.97311 13.1331C4.5874 13.1331 3.45883 14.22 3.46597 15.57C3.46597 16.9131 4.5874 18 5.97311 18C7.35883 18 8.4874 16.92 8.4874 15.57ZM7.06597 15.5631C7.06597 16.1515 6.57311 16.6223 5.97311 16.6223C5.36597 16.6223 4.88025 16.1515 4.88025 15.5631C4.88025 14.9746 5.37311 14.5038 5.97311 14.5038C6.57311 14.5038 7.06597 14.9815 7.06597 15.5631Z" fill="black"/>
</svg>
