<svg width="36" height="18" viewBox="0 0 36 18" fill="none" xmlns="http://www.w3.org/2000/svg">
<g opacity="0.7" clip-path="url(#clip0_168_2279)">
<path d="M24.4821 10.8H0V14.4C0 14.8179 0.299999 15.1179 0.717857 15.1179H4.8C4.8 15.3536 4.86428 15.6 4.91786 15.8357C5.21786 17.1 6.35357 18 7.68214 18C9 18 10.1464 17.1 10.4464 15.8357C10.5107 15.6 10.5643 15.3536 10.5643 15.1179H25.2643C25.2643 15.3536 25.3286 15.6 25.3821 15.8357C25.6821 17.1 26.8179 18 28.1357 18C29.4536 18 30.6 17.1 30.9 15.8357C30.9643 15.6 31.0179 15.3536 31.0179 15.1179H35.2821C35.7 15.1179 36 14.8179 36 14.4V7.91786H28.8C28.3821 7.91786 28.0821 7.61786 28.0821 7.2V4.31786C28.0821 3.9 28.3821 3.6 28.8 3.6H35.0357C33.7821 1.43571 31.4357 0 28.8 0H24.4821V10.8ZM27.0536 15.1179C27.0536 14.5179 27.5357 14.0357 28.1357 14.0357C28.7357 14.0357 29.2179 14.5179 29.2179 15.1179C29.2179 15.7179 28.7357 16.2 28.1357 16.2C27.5357 16.2 27.0536 15.7179 27.0536 15.1179ZM8.75357 15.1179C8.75357 15.7179 8.27143 16.2 7.67143 16.2C7.07143 16.2 6.58928 15.7179 6.58928 15.1179C6.58928 14.5179 7.07143 14.0357 7.67143 14.0357C8.28214 14.0357 8.75357 14.5179 8.75357 15.1179Z" fill="#0086FF"/>
<rect width="25" height="2" transform="matrix(-1 0 0 1 25 9)" fill="#4DAAFF"/>
</g>
<defs>
<clipPath id="clip0_168_2279">
<rect width="36" height="18" fill="white" transform="matrix(-1 0 0 1 36 0)"/>
</clipPath>
</defs>
</svg>
