<svg width="30" height="18" viewBox="0 0 30 18" fill="none" xmlns="http://www.w3.org/2000/svg">
<g opacity="0.6" clip-path="url(#clip0_168_2249)">
<path d="M0 0.598214V11.4018H19.8036V0.598214C19.8036 0.25 19.5536 0 19.2054 0H0.607141C0.249998 0 0 0.25 0 0.598214ZM20.4018 12H0V15C0 15.3482 0.25 15.5982 0.598215 15.5982H4C4 15.7946 4.05357 16 4.09821 16.1964C4.34821 17.25 5.29464 18 6.40179 18C7.5 18 8.45536 17.25 8.70536 16.1964C8.75893 16 8.80357 15.7946 8.80357 15.5982H21.0536C21.0536 15.7946 21.1071 16 21.1518 16.1964C21.4018 17.25 22.3482 18 23.4554 18C24.5536 18 25.5089 17.25 25.7589 16.1964C25.8125 16 25.8571 15.7946 25.8571 15.5982H29.4018C29.75 15.5982 30 15.3482 30 15V9.59821H24C23.6518 9.59821 23.4018 9.34821 23.4018 9V6.59821C23.4018 6.25 23.6518 6 24 6H29.1964C28.1518 4.19643 26.1964 3 24 3H20.4018V12ZM22.5446 15.5982C22.5446 15.0982 22.9464 14.6964 23.4464 14.6964C23.9464 14.6964 24.3482 15.0982 24.3482 15.5982C24.3482 16.0982 23.9464 16.5 23.4464 16.5C22.9464 16.5 22.5446 16.0982 22.5446 15.5982ZM7.29464 15.5982C7.29464 16.0982 6.89286 16.5 6.39286 16.5C5.89286 16.5 5.49107 16.0982 5.49107 15.5982C5.49107 15.0982 5.89286 14.6964 6.39286 14.6964C6.90178 14.6964 7.29464 15.0982 7.29464 15.5982Z" fill="black"/>
</g>
<defs>
<clipPath id="clip0_168_2249">
<rect width="30" height="18" fill="white" transform="matrix(-1 0 0 1 30 0)"/>
</clipPath>
</defs>
</svg>
