<svg width="35" height="18" viewBox="0 0 35 18" fill="none" xmlns="http://www.w3.org/2000/svg">
<path opacity="0.6" d="M32.448 3.61421H27.0264V8.06091H34.754L32.448 3.61421ZM30.7775 18C31.5974 18 32.2635 17.3401 32.2635 16.5279C32.2635 15.7157 31.5974 15.0558 30.7775 15.0558C29.9575 15.0558 29.2914 15.7157 29.2914 16.5279C29.2914 17.3401 29.9575 18 30.7775 18ZM9.01903 18C9.83895 18 10.5051 17.3401 10.5051 16.5279C10.5051 15.7157 9.83895 15.0558 9.01903 15.0558C8.19912 15.0558 7.53294 15.7157 7.53294 16.5279C7.53294 17.3401 8.19912 18 9.01903 18ZM2.61347 15.3604H6.68229C7.12299 14.5076 7.99414 13.9188 9.01903 13.9188C10.0439 13.9188 10.9253 14.5076 11.3558 15.3604H28.4407C28.8814 14.5076 29.7526 13.9188 30.7775 13.9188C31.8023 13.9188 32.6837 14.5076 33.1142 15.3604H35V9.18782H27.0264V12.5076C27.0264 12.8223 26.7701 13.0761 26.4524 13.0761H2.61347V15.3604ZM25.8785 0V11.9391H2.04978C2.03953 11.9391 2.03953 11.9391 2.03953 11.9391H2.02928H0V0H25.8785ZM4.34554 8.59898H21.5329C21.8507 8.59898 22.1069 8.34518 22.1069 8.03046C22.1069 7.71574 21.8507 7.46193 21.5329 7.46193H4.34554C4.02782 7.46193 3.7716 7.71574 3.7716 8.03046C3.7716 8.34518 4.02782 8.59898 4.34554 8.59898ZM4.34554 4.48731H21.5329C21.8507 4.48731 22.1069 4.2335 22.1069 3.91878C22.1069 3.60406 21.8507 3.35025 21.5329 3.35025H4.34554C4.02782 3.35025 3.7716 3.60406 3.7716 3.91878C3.7716 4.2335 4.02782 4.48731 4.34554 4.48731Z" fill="black"/>
</svg>
