<svg width="35" height="18" viewBox="0 0 35 18" fill="none" xmlns="http://www.w3.org/2000/svg">
<path d="M24.2742 0H0.354935V11.7415H24.2742V0Z" fill="black" fill-opacity="0.6"/>
<path d="M28.3519 13.1331C29.6949 13.1331 30.7888 14.22 30.7888 15.57C30.7888 16.92 29.6949 18 28.3519 18C27.0088 18 25.9149 16.9131 25.9149 15.57C25.9149 14.22 27.0088 13.1331 28.3519 13.1331ZM28.3519 16.6223C28.9334 16.6223 29.4111 16.1515 29.4111 15.5631C29.4111 14.9815 28.9334 14.5038 28.3519 14.5038C27.7703 14.5038 27.2926 14.9746 27.2926 15.5631C27.2926 16.1515 27.7703 16.6223 28.3519 16.6223Z" fill="black" fill-opacity="0.6"/>
<path d="M25.2642 3.51692H29.6119C30.9134 3.51692 32.0072 3.58615 32.5126 4.81846C33.018 6.05077 34.1811 9.24231 34.1811 9.24231V13.2577H34.9426V15.8538H31.5088C31.5157 15.7569 31.5226 15.66 31.5226 15.5631C31.5226 13.8115 30.1034 12.3854 28.3449 12.3854C26.5934 12.3854 25.1672 13.8046 25.1672 15.5631C25.1672 15.66 25.1742 15.7569 25.1811 15.8538H21.4011L19.8226 14.4208H16.0219C15.7242 13.6523 15.1357 13.0223 14.388 12.6831H25.2572L25.2642 3.51692ZM26.8219 7.17923L28.698 8.91H32.7688C32.5126 8.20385 31.8896 6.52154 31.578 5.76692C31.1834 4.79769 30.3249 4.74231 29.3072 4.74231H26.8149L26.8219 7.17923ZM10.1096 14.4208H8.80109C8.5034 13.6523 7.91494 13.0223 7.16724 12.6831H11.7503C11.0026 13.0292 10.4072 13.6523 10.1096 14.4208ZM4.52263 12.6831C3.77494 13.0292 3.18647 13.6523 2.88878 14.4208H0.0572433V12.6831H4.52263Z" fill="black" fill-opacity="0.6"/>
<path d="M13.0657 13.1331C14.4088 13.1331 15.5026 14.22 15.5026 15.57C15.5026 16.92 14.4157 18 13.0657 18C11.7226 18 10.6288 16.9131 10.6288 15.57C10.6357 14.22 11.7226 13.1331 13.0657 13.1331ZM13.0657 16.6223C13.6472 16.6223 14.1249 16.1515 14.1249 15.5631C14.1249 14.9815 13.6472 14.5038 13.0657 14.5038C12.4842 14.5038 12.0065 14.9746 12.0065 15.5631C12.0134 16.1515 12.4842 16.6223 13.0657 16.6223Z" fill="black" fill-opacity="0.6"/>
<path d="M5.84493 13.1331C7.18801 13.1331 8.28186 14.22 8.28186 15.57C8.28186 16.92 7.18801 18 5.84493 18C4.50186 18 3.41493 16.9131 3.41493 15.57C3.40801 14.22 4.50186 13.1331 5.84493 13.1331ZM5.84493 16.6223C6.42647 16.6223 6.90417 16.1515 6.90417 15.5631C6.90417 14.9815 6.42647 14.5038 5.84493 14.5038C5.2634 14.5038 4.7857 14.9746 4.7857 15.5631C4.7857 16.1515 5.25647 16.6223 5.84493 16.6223Z" fill="black" fill-opacity="0.6"/>
</svg>
