<?xml version="1.0" encoding="utf-8"?>
<!-- Generator: Adobe Illustrator 21.1.0, SVG Export Plug-In . SVG Version: 6.00 Build 0)  -->
<svg version="1.1" id="Layer_1" xmlns="http://www.w3.org/2000/svg" xmlns:xlink="http://www.w3.org/1999/xlink" x="0px" y="0px"
	 viewBox="0 0 20 20" style="enable-background:new 0 0 20 20;" xml:space="preserve">
<path d="M17.6,11c0-0.3,0.1-0.6,0.1-1c0-0.3,0-0.7-0.1-1l2.2-1.6c0.2-0.1,0.2-0.4,0.1-0.6l-2.1-3.5c-0.1-0.2-0.4-0.3-0.6-0.2l-2.6,1
	c-0.5-0.4-1.1-0.7-1.7-1l-0.4-2.6c0-0.3-0.3-0.4-0.5-0.4H7.9C7.7,0,7.5,0.2,7.4,0.4L7.1,3.1c-0.6,0.3-1.2,0.6-1.7,1l-2.6-1
	C2.5,3,2.3,3.1,2.1,3.3l-2,3.5C0,7,0,7.2,0.2,7.4L2.4,9c-0.1,0.3-0.1,0.7-0.1,1s0,0.7,0.1,1l-2.2,1.6c-0.2,0.1-0.2,0.4-0.1,0.6
	l2.1,3.5c0.1,0.2,0.4,0.3,0.6,0.2l2.6-1c0.5,0.4,1.1,0.7,1.7,1l0.4,2.6C7.5,19.8,7.7,20,7.9,20h4.1c0.3,0,0.5-0.2,0.5-0.4l0.4-2.6
	c0.6-0.3,1.2-0.6,1.7-1l2.6,1c0.2,0.1,0.5,0,0.6-0.2l2.1-3.5c0.1-0.2,0.1-0.5-0.1-0.6L17.6,11z M10,13.8c-2.1,0-3.9-1.7-3.9-3.8
	S7.9,6.3,10,6.3s3.9,1.7,3.9,3.8S12.1,13.8,10,13.8z"/>
</svg>
