<svg width="40" height="18" viewBox="0 0 40 18" fill="none" xmlns="http://www.w3.org/2000/svg">
<path opacity="0.6" fill-rule="evenodd" clip-rule="evenodd" d="M15.0544 0.244595C15.0544 0.11118 14.927 0 14.7741 0H13.6592C13.5063 0 13.3789 0.11118 13.3789 0.244595V9.97282C13.3789 10.3731 13.7548 10.7011 14.2135 10.7011C14.6722 10.7011 15.048 10.3731 15.048 9.97282V0.244595H15.0544ZM0 6.08153V8.14392C0 8.6887 0.0891925 9.22792 0.267577 9.75046L1.59909 13.6195H4.09648C4.59341 13.3138 5.19865 13.1303 5.85485 13.1303C6.51105 13.1303 7.11629 13.3138 7.61322 13.6195H15.0544V10.9401C14.8187 11.0957 14.532 11.1902 14.2198 11.1902C13.449 11.1902 12.8246 10.6455 12.8246 9.97282V5.83694H0.280319C0.127418 5.83694 0 5.94812 0 6.08153ZM8.21845 14.1032C8.6007 14.509 8.84917 15.0093 8.9065 15.5652H16.7363C16.7937 15.0148 17.0421 14.509 17.4244 14.1032H8.21845ZM0 14.3477C0 14.2143 0.127418 14.1032 0.280319 14.1032H3.49125C3.109 14.509 2.86053 15.0148 2.80319 15.5652H0.280319C0.127418 15.5652 0 15.454 0 15.3206V14.3477ZM5.85485 16.538C6.31355 16.538 6.68944 16.2156 6.68944 15.8098C6.68944 15.404 6.31355 15.0815 5.85485 15.0815C5.39615 15.0815 5.02026 15.4095 5.02026 15.8098C5.02026 16.21 5.39615 16.538 5.85485 16.538ZM5.85485 13.6195C4.47237 13.6195 3.34472 14.6035 3.34472 15.8098C3.34472 17.0161 4.47237 18 5.85485 18C7.23733 18 8.36498 17.0161 8.36498 15.8098C8.36498 14.6035 7.23733 13.6195 5.85485 13.6195ZM5.85485 17.0272C5.08397 17.0272 4.45962 16.4824 4.45962 15.8098C4.45962 15.1371 5.08397 14.5923 5.85485 14.5923C6.62573 14.5923 7.25007 15.1371 7.25007 15.8098C7.25007 16.4824 6.61936 17.0272 5.85485 17.0272ZM19.7944 16.538C20.2531 16.538 20.6289 16.2156 20.6289 15.8098C20.6289 15.404 20.2531 15.0815 19.7944 15.0815C19.3357 15.0815 18.9598 15.4095 18.9598 15.8098C18.9598 16.21 19.3357 16.538 19.7944 16.538ZM33.8485 13.1248C33.5555 12.7078 32.8865 12.6523 32.6126 12.6467C32.4724 12.6467 32.3514 12.5522 32.3323 12.4355C32.1985 11.5293 31.778 10.979 31.0645 10.7455L29.5864 14.2866C29.5546 14.3589 29.5418 14.4311 29.5418 14.5034V15.265C29.5418 15.5096 29.6947 15.7264 29.9432 15.832C30.3828 16.021 30.6567 16.4101 30.6567 16.8382V16.9382C30.6567 17.0939 30.6121 17.244 30.5421 17.383C30.593 17.3978 30.6433 17.4138 30.6935 17.4299C30.7941 17.462 30.8946 17.4941 31.0008 17.5164C31.9882 17.7332 32.6954 17.672 33.1031 17.3329C33.53 16.9827 33.651 16.299 33.4535 15.4095C33.4281 15.2928 33.4536 15.2205 33.4918 15.1705C34.0142 14.2477 34.1352 13.5417 33.8485 13.1248ZM22.1516 14.1032H26.4774C26.6303 14.1032 26.7577 14.2143 26.7577 14.3477V15.3206C26.7577 15.454 26.6303 15.5652 26.4774 15.5652H22.8396C22.7823 15.0093 22.5338 14.509 22.1516 14.1032ZM21.3106 6.01482C21.2788 5.9092 21.1641 5.83694 21.0431 5.83694H17.5582C17.4053 5.83694 17.2779 5.94812 17.2779 6.08153V8.51637C17.2779 8.64978 17.4053 8.76096 17.5582 8.76096H21.833C21.9222 8.76096 22.0051 8.72761 22.056 8.66646C22.107 8.60531 22.1261 8.52749 22.1006 8.45522L21.3106 6.01482ZM24.9102 8.88326L26.4265 9.87276C26.6303 10.0117 26.7577 10.2285 26.7577 10.4565V13.664C26.6685 13.6362 26.573 13.6195 26.4774 13.6195H21.5464C21.0494 13.3138 20.4442 13.1303 19.788 13.1303C19.1318 13.1303 18.5265 13.3138 18.0296 13.6195H15.6087V4.38048H22.2472C22.6358 4.38048 22.9734 4.6084 23.069 4.96973L24.4324 8.31625C24.5279 8.54416 24.6872 8.73873 24.9102 8.88326ZM21.8394 9.23904C22.107 9.23904 22.3491 9.13342 22.5084 8.94997C22.6676 8.76652 22.7122 8.53304 22.6485 8.30513L21.8522 5.87585C21.7502 5.56455 21.4189 5.34774 21.0494 5.34774H17.5645C17.1058 5.34774 16.73 5.67573 16.73 6.07597V8.51081C16.73 8.91106 17.1058 9.23904 17.5645 9.23904H21.8394ZM29.7011 16.2712C29.2615 16.0821 28.9876 15.693 28.9876 15.265V14.5034C28.9876 14.37 29.013 14.2421 29.064 14.1198L30.7395 10.0951C30.8224 9.895 30.7905 9.68376 30.6504 9.51143C30.5102 9.3391 30.2936 9.23904 30.0515 9.23904H29.9687C29.6629 9.23904 29.3889 9.40581 29.2806 9.65596L27.363 14.2866C27.3311 14.3589 27.3184 14.4311 27.3184 14.5034V15.6652C27.3184 15.7319 27.3311 15.7986 27.3566 15.8653L27.7134 16.8048C27.7835 16.9827 27.9364 17.1272 28.1339 17.1939L29.1022 17.533C29.3316 17.6109 29.58 17.5886 29.7839 17.4663C29.9878 17.344 30.1025 17.155 30.1025 16.9382V16.8382C30.1025 16.5936 29.9496 16.3768 29.7011 16.2712ZM17.2779 15.8098C17.2779 14.6035 18.4055 13.6195 19.788 13.6195C21.1705 13.6195 22.2981 14.6035 22.2981 15.8098C22.2981 17.0161 21.1705 18 19.788 18C18.4055 18 17.2779 17.0161 17.2779 15.8098ZM18.3928 15.8098C18.3928 16.4824 19.0171 17.0272 19.788 17.0272C20.5589 17.0272 21.1832 16.4824 21.1832 15.8098C21.1832 15.1371 20.5589 14.5923 19.788 14.5923C19.0171 14.5923 18.3928 15.1371 18.3928 15.8098Z" fill="black"/>
</svg>
