<svg width="40" height="18" viewBox="0 0 40 18" fill="none" xmlns="http://www.w3.org/2000/svg">
<path opacity="0.6" fill-rule="evenodd" clip-rule="evenodd" d="M32.9589 0.446611C32.9589 0.175454 33.0898 0 33.2593 0H35.0313C35.2008 0 35.3318 0.223305 35.3318 0.446611V1.11653H32.9589V0.446611ZM30.193 8.44572L31.3178 10.8542H2.07243V14.2517C2.07243 14.7381 2.45764 15.097 2.88908 15.097H3.49001C3.53624 13.175 5.08479 11.6119 6.94152 11.6119H12.8122C14.7074 11.6119 16.2175 13.2149 16.2637 15.1369H30.2007C30.2007 14.3314 30.4549 13.5738 30.9326 12.9916C31.5798 12.1462 32.5736 11.6517 33.6522 11.6517C34.2531 11.6517 34.8618 11.8352 35.378 12.1462C35.4516 12.1731 35.5229 12.1698 35.6944 12.1617C35.8279 12.1554 36.0222 12.1462 36.3256 12.1462H39.8619C39.8619 12.1462 40.2471 7.76783 39.7309 6.78688C39.3121 5.96884 39.296 5.9354 39.2984 5.93959L37.4889 2.59194C37.4889 2.59194 37.0575 1.69872 35.6784 1.69872H30.7554C30.4935 1.69872 30.193 1.92202 30.193 2.23305V3.07842V8.44572ZM33.5212 6.38813C33.2208 6.38813 32.9588 6.11697 32.9588 5.80594H33.0051V3.30173C33.0051 2.9907 33.267 2.71954 33.5675 2.71954H36.1561C36.4566 2.71954 36.6261 2.85512 36.888 3.30173L38.0513 5.58263C38.3133 6.11697 38.1361 6.38813 37.6199 6.38813H33.5212ZM4.22194 15.097V14.9615C4.30669 13.486 5.51626 12.3695 6.94155 12.3695C8.45158 12.3695 9.66115 13.6216 9.66115 15.1848C9.66115 16.7479 8.45158 18 6.94155 18C5.43151 18 4.22194 16.7479 4.22194 15.1848V15.097ZM6.94155 16.389C7.5887 16.389 8.10489 15.8547 8.10489 15.1848C8.10489 14.5148 7.5887 13.9805 6.94155 13.9805C6.29439 13.9805 5.7782 14.5148 5.7782 15.1848C5.7782 15.8547 6.29439 16.389 6.94155 16.389ZM12.8122 12.3695C14.3222 12.3695 15.5318 13.6216 15.5318 15.1848C15.5318 16.7479 14.3222 18 12.8122 18C11.3022 18 10.0926 16.7479 10.0926 15.1848C10.0926 13.6216 11.3022 12.3695 12.8122 12.3695ZM12.8122 16.389C13.4594 16.389 13.9755 15.8547 13.9755 15.1848C13.9755 14.5148 13.4594 13.9805 12.8122 13.9805C12.165 13.9805 11.6489 14.5148 11.6489 15.1848C11.6026 15.8547 12.165 16.389 12.8122 16.389ZM39.0375 15.097C39.5152 14.9615 39.7309 14.3394 39.8156 12.9996H36.0174C36.4489 13.5817 36.7493 14.2915 36.7493 15.097H39.0375ZM33.475 12.3695C34.9851 12.3695 36.1946 13.6216 36.1946 15.1848C36.1946 16.7479 34.9851 18 33.475 18C31.965 18 30.7554 16.7479 30.7554 15.1848C30.7554 13.6216 31.965 12.3695 33.475 12.3695ZM33.475 16.4767C34.2069 16.4767 34.7694 15.8946 34.7694 15.1369C34.7694 14.3793 34.2069 13.7971 33.475 13.7971C32.7817 13.7971 32.1807 14.3793 32.1807 15.1369C32.1807 15.9025 32.7431 16.4767 33.475 16.4767ZM19.0218 1.73859H16.4794V2.9907H19.0218V1.73859ZM19.0218 3.26185H16.4794V4.86486H19.0218V3.26185ZM16.4794 5.08817H19.0218V6.428H16.4794V5.08817ZM16.4794 8.4856H19.0218V10.0009H16.4794V8.4856ZM19.4533 10.0009H27.5196C28.1668 10.0009 29.3301 8.75676 29.3378 5.89366C29.3378 3.03057 28.2592 1.73859 27.5273 1.73859H24.6768V0.534338H20.3161V1.73859H19.4533V10.0009ZM19.0218 6.69916H16.4794V8.2623H19.0218V6.69916ZM6.6873 1.73859H2.02622C1.11712 1.73859 0 3.53301 0 5.80594C0 8.07887 0.993851 10.0009 1.85673 10.0009H16.0942V1.73859H11.0479V0.534338H6.6873V1.73859Z" fill="black"/>
</svg>
