<svg width="25" height="18" viewBox="0 0 25 18" fill="none" xmlns="http://www.w3.org/2000/svg">
<path d="M21.1667 4.51191H17.9167V0.333344H2.75004C1.55837 0.333344 0.583374 1.27352 0.583374 2.42263V13.9137H2.75004C2.75004 15.6478 4.20171 17.0476 6.00004 17.0476C7.79837 17.0476 9.25004 15.6478 9.25004 13.9137H15.75C15.75 15.6478 17.2017 17.0476 19 17.0476C20.7984 17.0476 22.25 15.6478 22.25 13.9137H24.4167V8.69049L21.1667 4.51191ZM6.00004 15.4807C5.10087 15.4807 4.37504 14.7808 4.37504 13.9137C4.37504 13.0466 5.10087 12.3467 6.00004 12.3467C6.89921 12.3467 7.62504 13.0466 7.62504 13.9137C7.62504 14.7808 6.89921 15.4807 6.00004 15.4807ZM20.625 6.07888L22.7484 8.69049H17.9167V6.07888H20.625ZM19 15.4807C18.1009 15.4807 17.375 14.7808 17.375 13.9137C17.375 13.0466 18.1009 12.3467 19 12.3467C19.8992 12.3467 20.625 13.0466 20.625 13.9137C20.625 14.7808 19.8992 15.4807 19 15.4807Z" fill="black"/>
</svg>
