<svg width="40" height="18" viewBox="0 0 40 18" fill="none" xmlns="http://www.w3.org/2000/svg">
<path opacity="0.6" fill-rule="evenodd" clip-rule="evenodd" d="M12.9982 0H9.28112L3.8496 7.84748V14.5468H6.68615L9.1954 11.4647L12.9982 0ZM29.3707 2.09784V11.3439H33.1346C33.9529 11.3439 34.7477 11.7065 35.3244 12.354C35.9088 13.0014 36.2283 13.8734 36.2283 14.7799V15.3237H40V13.3727H39.4935V8.17554L36.4154 2.09784H29.3707ZM31.0462 2.90072H35.9945L37.9973 6.84604V9.44461H36.314L34.0152 7.13094H31.0462V2.90072ZM32.6437 12.1899C31.9579 12.1986 31.3033 12.5094 30.828 13.0532C30.3526 13.5971 30.0877 14.3309 30.1033 15.0906C30.0877 15.859 30.3526 16.6014 30.8358 17.1453C31.3189 17.6892 31.9813 18 32.6749 18C33.3684 18 34.0308 17.6892 34.5139 17.1453C34.9971 16.5928 35.262 15.859 35.2464 15.0906C35.262 14.3223 34.9893 13.5799 34.4983 13.036C34.0074 12.4835 33.3372 12.1813 32.6437 12.1899ZM32.6671 14.6849C32.7606 14.6849 32.8541 14.7281 32.9242 14.7971C32.9944 14.8748 33.0333 14.9784 33.0333 15.082C33.0411 15.1942 33.0021 15.2978 32.9398 15.3755C32.8697 15.4532 32.7762 15.4964 32.6826 15.4964C32.5891 15.4964 32.4878 15.4532 32.4255 15.3755C32.3554 15.2978 32.3242 15.1856 32.332 15.082C32.3164 14.8748 32.4722 14.6935 32.6671 14.6849ZM16.7621 12.2417C16.092 12.2676 15.4607 12.5698 14.9932 13.105C14.5256 13.6403 14.2685 14.3482 14.2685 15.0906C14.2685 16.1094 14.7594 17.0417 15.5543 17.5511C16.3491 18.0604 17.331 18.0604 18.1259 17.5511C18.9207 17.0417 19.4116 16.1007 19.4116 15.0906C19.4116 14.3223 19.1311 13.5799 18.6324 13.0446C18.1336 12.5094 17.4557 12.2158 16.7621 12.2417ZM16.8323 14.6849C16.9258 14.6849 17.0193 14.7281 17.0894 14.7971C17.1596 14.8748 17.1985 14.9784 17.1985 15.082C17.1985 15.2978 17.0349 15.4791 16.8401 15.4791C16.6452 15.4791 16.4816 15.2978 16.4816 15.082C16.4738 14.8748 16.6297 14.6935 16.8323 14.6849ZM9.12527 13.105C9.59283 12.5698 10.224 12.2676 10.8942 12.2417C11.5878 12.2158 12.2657 12.5094 12.7645 13.0446C13.2632 13.5799 13.5437 14.3223 13.5437 15.0906C13.5437 16.1094 13.0528 17.0504 12.2579 17.5597C11.4631 18.0691 10.4812 18.0691 9.68634 17.5597C8.89149 17.0504 8.40055 16.1094 8.40055 15.0906C8.40055 14.3482 8.65771 13.6403 9.12527 13.105ZM11.2215 14.7971C11.1514 14.7281 11.0579 14.6849 10.9643 14.6849C10.7695 14.6935 10.6137 14.8748 10.6293 15.082C10.6215 15.1856 10.6526 15.2978 10.7228 15.3755C10.7851 15.4532 10.8786 15.4964 10.9799 15.4964C11.0734 15.4964 11.167 15.4532 11.2371 15.3755C11.2994 15.2978 11.3384 15.1942 11.3306 15.082C11.3306 14.9784 11.2916 14.8748 11.2215 14.7971ZM37.5297 6.98417V8.93525H36.4933L34.1944 6.62158H31.5059V3.41007H35.7218L37.5297 6.98417ZM28.8097 15.6086H21.0247V14.1755L19.4818 11.8532H30.3526L28.8097 14.1755V15.6086ZM3.38983 12.846V11.2144L2.01052 12.846H3.38983ZM0 14.2705V13.6317C0 13.4849 0.109098 13.3554 0.249367 13.3554H3.38983V14.5468H0.249367C0.109098 14.5468 0 14.4259 0 14.2705ZM9.72531 11.3439H14.6035L18.3596 0H13.4814L9.72531 11.3439ZM18.8584 0H23.8535L20.0974 11.3439H15.0945L18.8584 0ZM24.3444 0L20.5728 11.3439H25.038L28.8097 0H24.3444ZM25.5367 11.3439L28.911 1.1741V11.3439H25.5367Z" fill="black"/>
</svg>
