<svg width="40" height="18" viewBox="0 0 40 18" fill="none" xmlns="http://www.w3.org/2000/svg">
<path opacity="0.6" fill-rule="evenodd" clip-rule="evenodd" d="M0.891313 9.35028H3.93058V9.27414C3.93058 8.88581 4.23013 8.56601 4.61003 8.56601H9.6073C9.9799 8.56601 10.2794 8.8782 10.2794 9.27414V9.35789L17.5781 9.37312C17.6584 7.62185 19.0466 6.22844 20.7415 6.22844C22.4438 6.22844 23.832 7.62946 23.905 9.38074H25.5415C25.768 9.38074 25.9507 9.19038 25.9507 8.95434V7.84266C25.9507 7.60662 25.768 7.41626 25.5415 7.41626H24.8256V5.23098C24.8256 4.60661 24.3434 4.10407 23.7443 4.10407H18.0603L15.832 0.708124C15.4667 0.19797 15.116 0 14.5534 0H4.34702C3.60182 0 2.99542 0.631981 2.99542 1.40863V3.55585H3.66026C4.01825 3.55585 4.01825 4.1193 3.66026 4.1193H2.94428C2.19908 4.12691 1.6073 4.75128 1.6073 5.52032V7.38581H0.891313C0.664829 7.38581 0.489487 7.57616 0.489487 7.8122V8.92388C0.489487 9.15992 0.664829 9.35028 0.891313 9.35028ZM11.2365 1.40863C11.2365 1.17259 11.4192 0.98985 11.6383 0.98985H14.4657C14.6922 0.98985 14.7726 1.01269 14.9772 1.29442L15.6128 2.22336C15.7735 2.4594 15.7151 2.64214 15.4959 2.64214H11.6457C11.4192 2.64214 11.2438 2.45178 11.2438 2.22336L11.2365 1.40863ZM10.8931 3.41118C11.032 3.41118 11.1342 3.47209 11.2073 3.55585H12.1863C12.5443 3.55585 12.5443 4.1193 12.1863 4.1193H11.2073C11.1415 4.20306 11.032 4.25636 10.8931 4.25636C10.3525 4.25636 10.3525 3.41118 10.8931 3.41118ZM18.9516 3.5635H22.59C22.8895 3.5635 23.1306 3.31223 23.1306 3.00004V2.66502C23.1306 2.35283 22.8895 2.10156 22.59 2.10156H18.9516C18.6521 2.10156 18.411 2.35283 18.411 2.66502V3.00004C18.411 3.30461 18.6521 3.5635 18.9516 3.5635ZM18.389 9.5407C18.389 8.18536 19.4411 7.0813 20.7489 7.0813C22.0493 7.0813 23.1087 8.17775 23.1087 9.5407C23.1087 10.3326 22.7507 11.0407 22.1881 11.4899H19.3096C18.7543 11.0407 18.389 10.3326 18.389 9.5407ZM19.5945 9.5407C19.5945 10.2031 20.1132 10.7437 20.7489 10.7437C21.3845 10.7437 21.9032 10.2031 21.9032 9.5407C21.9032 8.87826 21.3845 8.33765 20.7489 8.33765C20.1132 8.33765 19.5945 8.87826 19.5945 9.5407ZM34.7909 13.0813C33.4904 13.0813 32.431 14.1854 32.431 15.5407C32.431 16.9036 33.4904 18.0001 34.7909 18.0001C36.0913 18.0001 37.1507 16.896 37.1507 15.5407C37.1507 14.1854 36.0986 13.0813 34.7909 13.0813ZM34.7909 16.7437C34.1552 16.7437 33.6365 16.2031 33.6365 15.5407C33.6365 14.8783 34.1552 14.3376 34.7909 14.3376C35.4265 14.3376 35.9452 14.8706 35.9452 15.5407C35.9452 16.2107 35.4265 16.7437 34.7909 16.7437ZM4.74151 9.53296C4.74151 9.38829 4.75612 9.24362 4.77804 9.10657H6.02005C5.97622 9.23601 5.94699 9.38068 5.94699 9.53296C5.94699 10.1954 6.46571 10.736 7.10133 10.736C7.73695 10.736 8.25567 10.1954 8.25567 9.53296C8.25567 9.38829 8.23375 9.23601 8.18261 9.10657H9.43192C9.46115 9.24362 9.46845 9.38829 9.46845 9.53296C9.46845 10.3248 9.11046 11.033 8.5479 11.4822H5.66206C5.0995 11.033 4.74151 10.3248 4.74151 9.53296ZM39.5982 13.4315H38.8822V12.3046C39.0283 12.5939 39.3205 12.7995 39.6639 12.7995C39.6639 12.7995 39.7297 12.7995 39.7443 12.7919C39.8904 12.7691 40 12.6396 40 12.4721V11.2843C40 11.1244 39.8904 10.9873 39.7443 10.9645C39.7297 10.9645 39.7169 10.9626 39.7041 10.9607C39.6913 10.9588 39.6785 10.9569 39.6639 10.9569C39.3205 10.9569 39.0283 11.1549 38.8822 11.4442V11.231C38.8822 10.6066 38.3927 10.1041 37.8009 10.1041H36.0329C35.6603 10.1041 35.6603 9.54064 36.0329 9.54064H37.3918L34.316 4.87311C33.9507 4.37057 33.6 4.16499 33.0447 4.16499H30.2247L30.1516 3.63961C30.1443 3.58631 30.1005 3.54062 30.0493 3.54062L29.9616 2.84773C29.8959 2.39087 29.6767 2.15483 29.3187 2.15483C28.9607 2.15483 28.7416 2.38326 28.6758 2.84773L28.5881 3.54062H28.5662C28.5151 3.54062 28.4712 3.58631 28.4566 3.63961L28.3836 4.16499H27.3242C26.9516 4.16499 26.6447 4.47717 26.6447 4.87311V11.5356C26.579 11.8477 26.3087 12.0838 25.9872 12.0838H1.79726C1.42466 12.0838 1.12511 12.396 1.12511 12.7843V13.3934H0.401826C0.175342 13.3934 0 13.5838 0 13.8198V14.9315C0 15.1676 0.182648 15.3579 0.401826 15.3579L3.4411 15.3655V15.2818C3.4411 14.8934 3.74064 14.5736 4.11324 14.5736H9.1105C9.4831 14.5736 9.78995 14.8858 9.78995 15.2818V15.3731L31.6201 15.3884C31.7005 13.6371 33.0886 12.2437 34.7836 12.2437C36.4858 12.2437 37.874 13.6447 37.947 15.396H39.5836C39.81 15.396 39.9927 15.2056 39.9927 14.9772V13.8579C40 13.6219 39.8173 13.4315 39.5982 13.4315ZM29.0338 2.90864C29.0776 2.58884 29.1872 2.55077 29.3187 2.55077C29.4502 2.55077 29.5525 2.58884 29.6037 2.91625L29.6767 3.49494H28.9607L29.0338 2.90864ZM30.1954 8.22337C30.1954 8.45942 30.0128 8.64977 29.7863 8.64977H28.7854C28.5589 8.64977 28.3836 8.45942 28.3836 8.22337V5.58124C28.3836 5.34519 28.5662 5.16245 28.7854 5.16245H29.7863C30.0128 5.16245 30.1954 5.35281 30.1954 5.58124V8.22337ZM32.621 10.1193H31.642C31.5763 10.2031 31.474 10.264 31.3279 10.264C30.7872 10.264 30.7872 9.41881 31.3279 9.41881C31.4667 9.41881 31.5689 9.47211 31.6347 9.55587H32.6137C32.979 9.55587 32.979 10.1193 32.621 10.1193ZM35.2146 8.64977H31.3644C31.1379 8.64977 30.9626 8.45942 30.9626 8.22337V5.58124C30.9626 5.34519 31.1452 5.16245 31.3644 5.16245H32.9498C33.1763 5.16245 33.2566 5.1853 33.4612 5.46702L35.3388 8.23099C35.4922 8.45942 35.4411 8.64977 35.2146 8.64977ZM7.78072 15.5405C7.78072 15.3959 7.7515 15.2512 7.70036 15.1141H8.94236C8.96428 15.2512 8.97889 15.3959 8.97889 15.5405C8.97889 16.8959 7.92684 17.9999 6.61908 17.9999C5.31862 17.9999 4.25926 16.9035 4.25926 15.5405C4.25926 15.3959 4.27387 15.2512 4.29579 15.1141H5.55241C5.50127 15.2436 5.47204 15.3882 5.47204 15.5405C5.47204 16.203 5.99077 16.7436 6.62638 16.7436C7.262 16.7436 7.78072 16.203 7.78072 15.5405Z" fill="black"/>
</svg>
