<svg width="47" height="18" viewBox="0 0 47 18" fill="none" xmlns="http://www.w3.org/2000/svg">
<path d="M40.0363 4.06583H43.5001C43.6112 4.06583 43.7021 4.07605 43.7829 4.09648L45.1159 6.99773V7.55959H41.2886L39.9051 6.40522H39.895V4.17821C39.895 4.11691 39.9656 4.06583 40.0363 4.06583Z" fill="#0086FF"/>
<path d="M46.5903 11.7174L45.8329 11.1044C45.8228 11.0636 45.8026 11.0227 45.7925 10.9716C45.7824 10.9103 45.7824 10.849 45.7723 10.798H46.5903V11.7174Z" fill="#0086FF"/>
<path d="M37.8954 2.92168H44.611L46.7317 7.55959V13.0556H37.8954V2.92168ZM45.7925 10.9716C45.8026 11.0125 45.8228 11.0533 45.8329 11.1044L46.5903 11.7174V10.7877H45.7723C45.7824 10.849 45.7824 10.9103 45.7925 10.9716ZM39.895 6.40522L41.2886 7.55959H45.1159V6.99773L43.7829 4.09648C43.7021 4.07605 43.6112 4.06583 43.5001 4.06583H40.0363C39.9656 4.06583 39.895 4.12713 39.895 4.18842V6.40522Z" fill="#0086FF"/>
<path d="M0.268177 0H35.9262V13.0658H0.268177V0Z" fill="#0086FF"/>
<path d="M8.36723 14.6493C9.2761 14.6493 10.0234 15.395 10.0234 16.3246C10.0234 17.244 9.2761 18 8.36723 18C7.44826 18 6.70097 17.244 6.70097 16.3246C6.70097 15.3848 7.44826 14.6493 8.36723 14.6493Z" fill="#0086FF"/>
<path d="M13.1641 14.6493C14.083 14.6493 14.8202 15.395 14.8202 16.3246C14.8202 17.244 14.083 18 13.1641 18C12.2552 18 11.5079 17.244 11.5079 16.3246C11.518 15.3848 12.2653 14.6493 13.1641 14.6493Z" fill="#0086FF"/>
<path d="M32.3109 14.6493C33.2198 14.6493 33.9671 15.395 33.9671 16.3246C33.9671 17.244 33.2198 18 32.3109 18C31.392 18 30.6447 17.244 30.6447 16.3246C30.6548 15.3848 31.4021 14.6493 32.3109 14.6493Z" fill="#0086FF"/>
<path d="M42.157 14.6493C43.0659 14.6493 43.8132 15.395 43.8132 16.3246C43.8132 17.244 43.0659 18 42.157 18C41.2381 18 40.5009 17.244 40.5009 16.3246C40.511 15.3848 41.2482 14.6493 42.157 14.6493Z" fill="#0086FF"/>
<path d="M46.7317 14.5165C46.7317 15.3644 46.0652 16.0386 45.2371 16.0386H44.3181C44.1869 14.9455 43.2679 14.0976 42.1671 14.0976C41.0462 14.0976 40.1373 14.9455 40.006 16.0386H34.4821C34.3508 14.9455 33.4319 14.0976 32.3311 14.0976C31.2102 14.0976 30.2912 14.9455 30.17 16.0386H15.3554C15.2141 14.9455 14.3052 14.0976 13.1943 14.0976C12.0835 14.0976 11.1645 14.9455 11.0333 16.0386H10.5586C10.4273 14.9455 9.50837 14.0976 8.40763 14.0976C7.28669 14.0976 6.36772 14.9455 6.24653 16.0386H4.16623C4.04504 15.3644 3.51992 14.8229 2.85342 14.7106V13.6073H46.7317V14.5165Z" fill="#0086FF"/>
</svg>
