<svg width="30" height="56" viewBox="0 0 26 50" fill="none" xmlns="http://www.w3.org/2000/svg">
<path d="M6.69249 0H6.54721C4.39709 0.0093006 2.38257 1.04167 1.1816 2.75298L1.4431 2.88318C1.53027 2.92969 1.57869 3.02269 1.54964 3.1157C1.52058 3.20871 1.42373 3.26451 1.31719 3.24591L0.920097 3.1808C0.668281 3.59933 0.474576 4.04576 0.329298 4.51079C0.280872 4.734 0.387409 4.96652 0.600484 5.07812L1.4431 5.48735C1.53995 5.52455 1.57869 5.62686 1.54964 5.71987C1.52058 5.81287 1.42373 5.86868 1.31719 5.85007L0.0968523 5.64546C0.0774818 5.83147 0.0677966 6.02679 0.0677966 6.2221V7.11496C0.0774818 7.30097 0.184019 7.46838 0.348668 7.56138L1.43341 8.08222C1.52058 8.12872 1.56901 8.22173 1.53995 8.31473C1.5109 8.40774 1.41404 8.46354 1.30751 8.44494L0.687651 8.33333C0.532688 8.32403 0.377724 8.37054 0.271186 8.47284C0.164649 8.57515 0.0968523 8.71466 0.0968523 8.85417V9.72842C0.106538 9.91444 0.213075 10.0818 0.377724 10.1749L1.46247 10.6957C1.55932 10.7329 1.59806 10.8352 1.56901 10.9282C1.53995 11.0212 1.4431 11.0677 1.33656 11.0491L0.677966 10.9375C0.523002 10.9189 0.377724 10.9561 0.261501 11.0491C0.145278 11.1421 0.0774818 11.2816 0.0677966 11.4211V12.2954C0.0677966 12.4814 0.174334 12.6488 0.348668 12.7418L1.43341 13.2626C1.52058 13.3092 1.55932 13.4022 1.53027 13.4952C1.50121 13.5882 1.39467 13.644 1.29782 13.6161L0.687651 13.5324C0.542373 13.5138 0.387409 13.551 0.271186 13.644C0.154964 13.737 0.0774818 13.8672 0.0677966 14.016V14.8903C0.0774818 15.0763 0.174334 15.2344 0.348668 15.3274L1.43341 15.8761C1.52058 15.9226 1.55932 16.0249 1.53027 16.1179C1.49153 16.2016 1.39467 16.2574 1.29782 16.2388L0.687651 16.1365C0.387409 16.1086 0.125908 16.3225 0.0968523 16.6016V17.4665C0.0968523 17.6525 0.20339 17.8199 0.368039 17.9036L1.45278 18.4617C1.53995 18.5082 1.57869 18.6105 1.54964 18.7035C1.5109 18.7872 1.41404 18.843 1.31719 18.8244L0.716707 18.7035C0.561743 18.6849 0.40678 18.7221 0.290557 18.8151C0.174334 18.9081 0.0968523 19.0476 0.0871671 19.1964V20.0521C0.0871671 20.2381 0.193705 20.4055 0.358353 20.4892L1.4431 21.0658C1.53027 21.1124 1.56901 21.2147 1.53995 21.3077C1.50121 21.3914 1.40436 21.4472 1.30751 21.4286L0.707022 21.3077C0.552058 21.2798 0.397094 21.3263 0.280872 21.4193C0.164649 21.5123 0.0871671 21.6518 0.0774818 21.8006V22.6563C0.0871671 22.833 0.184019 23.0004 0.338983 23.0841L1.42373 23.67C1.5109 23.7165 1.55932 23.8188 1.52058 23.9025C1.48184 23.9955 1.38499 24.042 1.28814 24.0234L0.697337 23.9025C0.542373 23.8746 0.387409 23.9211 0.271186 24.0141C0.154964 24.1071 0.0774818 24.2467 0.0677966 24.3955V25.2511C0.0677966 25.4278 0.174334 25.5952 0.329298 25.6882L1.41404 26.2742C1.50121 26.3207 1.53995 26.423 1.50121 26.516C1.46247 26.5997 1.36562 26.6555 1.26876 26.6276L0.687651 26.4974C0.532688 26.4695 0.377724 26.5067 0.261501 26.5997C0.135593 26.6927 0.0677966 26.8322 0.0581114 26.981V27.8367C0.0581114 28.0134 0.164649 28.1808 0.319613 28.2645L1.40436 28.8597C1.49153 28.9062 1.53027 29.0086 1.49153 29.1016C1.45278 29.1946 1.35593 29.2411 1.25908 29.2132L0.677966 29.083C0.523002 29.0551 0.368039 29.0923 0.242131 29.1853C0.116223 29.2783 0.0484261 29.4178 0.0387409 29.5666V30.4129C0.0387409 30.5897 0.145278 30.7571 0.300242 30.8408L1.38499 31.4453C1.47215 31.4918 1.5109 31.5941 1.47215 31.6871C1.43341 31.7801 1.33656 31.8266 1.23971 31.808L0.658596 31.6685C0.503632 31.6406 0.348668 31.6778 0.22276 31.7708C0.0968523 31.8638 0.0290557 32.0033 0.0193705 32.1522V32.9985C0.0193705 33.1752 0.116223 33.3426 0.280872 33.4263L1.36562 34.0495C1.45278 34.096 1.49153 34.1983 1.45278 34.2913C1.41404 34.3843 1.31719 34.4308 1.21065 34.4029L0.639225 34.2634C0.484261 34.2355 0.329298 34.2727 0.20339 34.3657C0.0774819 34.4587 0 34.5982 0 34.747V35.5841C0 35.7608 0.0968523 35.9189 0.251816 36.0119L1.33656 36.635C1.42373 36.6815 1.46247 36.7932 1.42373 36.8769C1.38499 36.9606 1.27845 37.0071 1.1816 36.9885L0.610169 36.849C0.338983 36.8583 0.116223 37.0722 0.0968523 37.3326V38.1696C0.106538 38.3464 0.193705 38.5045 0.348668 38.5975L1.43341 39.2299C1.52058 39.2764 1.55932 39.388 1.52058 39.4717C1.48184 39.5647 1.3753 39.6112 1.27845 39.5833L0.736077 39.4438C0.581114 39.4159 0.416465 39.4531 0.300242 39.5368C0.174334 39.6298 0.0968523 39.7693 0.0871671 39.9182V40.7552C0.0871671 40.9319 0.184019 41.09 0.338983 41.183L1.46247 41.8248C1.54964 41.8713 1.57869 41.9736 1.53995 42.0666C1.50121 42.1503 1.39467 42.1968 1.29782 42.1782L0.765133 42.048C0.610169 42.0201 0.445521 42.048 0.319613 42.141C0.193705 42.234 0.116223 42.3735 0.106538 42.5223V43.3501C0.106538 43.5268 0.20339 43.6849 0.358353 43.7779L1.48184 44.4382C1.56901 44.4847 1.59806 44.5871 1.55932 44.6801C1.5109 44.7638 1.41404 44.8103 1.31719 44.7917L0.949152 44.6894C0.774818 44.6522 0.590799 44.6987 0.464891 44.8196C0.338983 44.9405 0.271186 45.1079 0.300242 45.2753C0.416465 45.7031 0.571429 46.1217 0.774818 46.5216C0.823245 46.6053 0.891041 46.6797 0.978208 46.7262L1.48184 47.0238C1.56901 47.0703 1.60775 47.1726 1.55932 47.2656C1.52058 47.3586 1.41404 47.4051 1.31719 47.3772C2.52784 49.0141 4.50363 49.9907 6.59564 49.9814H6.74092L6.69249 0Z" fill="black"/>
<path d="M9.26392 0H11.1429C11.4334 0 11.6659 0.279018 11.6659 0.502232V49.4978C11.6659 49.7768 11.4334 50 11.1429 50H9.26392C8.97336 50 8.74092 49.721 8.74092 49.4978V0.502232C8.74092 0.223214 8.97336 0 9.26392 0Z" fill="black"/>
<path d="M14.189 0H16.068C16.3585 0 16.591 0.279018 16.591 0.502232V49.4978C16.591 49.7768 16.3585 50 16.068 50H14.189C13.8985 50 13.666 49.721 13.666 49.4978V0.502232C13.666 0.223214 13.8985 0 14.189 0Z" fill="black"/>
<path d="M23.7337 47.5353C23.6853 47.4516 23.7143 47.34 23.7918 47.2842L24.1308 47.0517C24.1889 47.0145 24.247 46.9587 24.2857 46.8936C24.5375 46.4937 24.7409 46.0565 24.8862 45.6101C24.9346 45.4241 24.8765 45.2381 24.7313 45.1079C24.586 44.9777 24.3826 44.9312 24.1986 44.987L23.9855 45.0707C23.8886 45.1079 23.7724 45.08 23.724 44.987C23.6756 44.894 23.7046 44.7824 23.7918 44.7359L24.9443 43.9453L25.1961 43.4803V42.8106C25.1865 42.6525 25.0993 42.5037 24.9637 42.4107C24.8281 42.3177 24.6538 42.2991 24.4891 42.3456L23.9855 42.5316C23.8886 42.5688 23.7821 42.5223 23.7337 42.4386C23.6853 42.3549 23.7143 42.2433 23.7918 42.1875L24.9734 41.369C25.109 41.276 25.1865 41.1272 25.1865 40.9598V40.253C25.1768 40.0949 25.0896 39.9461 24.954 39.8531C24.8184 39.76 24.6441 39.7414 24.4794 39.7879L23.9758 39.9833C23.879 40.0205 23.7627 39.9926 23.7143 39.8996C23.6659 39.8065 23.6949 39.6949 23.7821 39.6484L24.9734 38.8114C25.0993 38.7184 25.1768 38.5696 25.1865 38.4115V37.7139C25.1768 37.5558 25.0896 37.407 24.954 37.314C24.8184 37.221 24.6441 37.2024 24.4794 37.2489L23.9855 37.4442C23.8886 37.4814 23.7821 37.4442 23.7337 37.3512C23.6853 37.2675 23.7143 37.1559 23.7918 37.1001L24.9831 36.2537C25.1187 36.1607 25.1961 36.0119 25.1961 35.8538V35.1469C25.1865 34.9888 25.0993 34.84 24.954 34.747C24.8184 34.654 24.6344 34.6354 24.4794 34.6912L23.9952 34.8865C23.8983 34.9237 23.7918 34.8865 23.7434 34.8028C23.6949 34.7191 23.7143 34.6075 23.8015 34.5517L24.9928 33.6961C25.1187 33.6031 25.1961 33.4542 25.1961 33.2961V32.6079C25.1865 32.4498 25.0993 32.301 24.954 32.208C24.8184 32.115 24.6344 32.0964 24.4794 32.1522L23.9952 32.3475C23.908 32.3847 23.7918 32.3568 23.7434 32.2731C23.6853 32.1894 23.7143 32.0778 23.7918 32.0219L24.9928 31.1663C25.1187 31.0733 25.1961 30.9245 25.1961 30.7664V30.0874C25.1768 29.9293 25.0896 29.7898 24.9443 29.7061C24.8087 29.6224 24.6344 29.6038 24.4794 29.6596L23.9952 29.8549C23.908 29.8921 23.8015 29.8549 23.7434 29.7805C23.6853 29.6968 23.7143 29.5852 23.7918 29.5294L24.9928 28.6272C25.1187 28.5342 25.1961 28.3854 25.1961 28.2273V27.5484C25.1865 27.381 25.0993 27.2414 24.954 27.1484C24.8087 27.0554 24.6344 27.0368 24.4794 27.0926L23.9952 27.2879C23.908 27.3251 23.8015 27.2879 23.7434 27.2135C23.6853 27.1298 23.7143 27.0182 23.7918 26.9624L24.9928 26.0789C25.1187 25.9859 25.1865 25.8371 25.1961 25.6789V25C25.1865 24.8326 25.0896 24.6838 24.954 24.6001C24.8087 24.5071 24.6344 24.4885 24.4698 24.5443L23.9952 24.7396C23.8983 24.7768 23.7918 24.7489 23.7434 24.6652C23.6949 24.5815 23.7143 24.4699 23.7918 24.4141L24.9928 23.5212C25.1187 23.4282 25.1865 23.2794 25.1961 23.1306V22.4609C25.1865 22.2935 25.0993 22.1447 24.954 22.061C24.8087 21.968 24.6344 21.9494 24.4698 22.0052L23.9952 22.2098C23.8983 22.247 23.7918 22.2191 23.7434 22.1354C23.6853 22.0517 23.7143 21.9401 23.7918 21.8843L24.9928 20.9821C25.1187 20.8891 25.1865 20.7403 25.1961 20.5915V19.9312C25.1865 19.7638 25.0896 19.615 24.9443 19.5312C24.7991 19.4382 24.6247 19.4196 24.4601 19.4847L23.9952 19.6894C23.8983 19.7266 23.7918 19.6987 23.7434 19.615C23.6949 19.5312 23.7143 19.4196 23.7918 19.3638L25.0024 18.4524C25.1284 18.3594 25.1961 18.2106 25.1961 18.0618V17.4014C25.1865 17.234 25.0896 17.0852 24.9443 17.0015C24.7991 16.9085 24.6247 16.8899 24.4601 16.955L23.9952 17.1596C23.908 17.1968 23.7918 17.1689 23.7434 17.0852C23.6853 17.0015 23.7143 16.8899 23.7918 16.8341L25.0024 15.9133C25.1284 15.8203 25.1961 15.6715 25.1961 15.5227V14.8624C25.1865 14.6949 25.0896 14.5461 24.9443 14.4531C24.7991 14.3601 24.615 14.3508 24.4601 14.4066L23.9952 14.6112C23.908 14.6484 23.7918 14.6205 23.7434 14.5368C23.6853 14.4531 23.7143 14.3415 23.7918 14.2857L25.0024 13.3557C25.1284 13.2626 25.1961 13.1138 25.1961 12.965V12.3233C25.1865 12.1559 25.0896 12.0071 24.9443 11.9141C24.7991 11.8211 24.615 11.8118 24.4601 11.8676L24.0049 12.0722C23.908 12.1094 23.8015 12.0815 23.7434 11.9978C23.6949 11.9141 23.7046 11.8118 23.7821 11.7467L25.0024 10.798C25.1187 10.705 25.1865 10.5655 25.1961 10.4167V9.77493C25.1865 9.60752 25.0896 9.45871 24.9443 9.3657C24.7991 9.27269 24.615 9.26339 24.4504 9.3192L24.0049 9.52381C23.908 9.56101 23.8015 9.53311 23.7434 9.4494C23.6949 9.3657 23.7046 9.26339 23.7821 9.19829L25.0024 8.24963C25.1187 8.15662 25.1865 8.01711 25.1961 7.8683V7.22656C25.1865 7.05915 25.0896 6.91034 24.9443 6.81734C24.7991 6.72433 24.615 6.71503 24.4504 6.77083L24.0049 6.97545C23.9177 7.02195 23.8015 6.98475 23.753 6.91034C23.6949 6.82664 23.7143 6.71503 23.7918 6.65923L24.9443 5.74777C25.0896 5.63616 25.1574 5.46875 25.138 5.29204C25.0993 5.06882 25.0509 4.85491 24.9928 4.6317C24.9443 4.49219 24.8378 4.38058 24.7022 4.32478C24.5666 4.26897 24.402 4.25967 24.2664 4.32478L24.0145 4.43638C23.9274 4.48289 23.8112 4.45499 23.7627 4.37128C23.7046 4.28757 23.724 4.17597 23.8015 4.12016L24.2373 3.76674C24.431 3.61793 24.4794 3.35752 24.3632 3.1529C23.8015 2.19494 22.9782 1.39509 21.9903 0.846354C21.0024 0.288319 19.879 0 18.7361 0H18.5908V50H18.7361C20.7119 50 22.5908 49.1257 23.8112 47.6376C23.7918 47.5911 23.7434 47.5632 23.7337 47.5353Z" fill="black"/>
</svg>
